<svg xmlns="http://www.w3.org/2000/svg"><symbol id="sprite-chevron-left" viewBox="0 0 640 640"><title/><path d="M444.512 557.376c8.576 8.704 8.576 22.688 0 31.328s-22.432 8.672-31.008 0l-250.56-253.056c-8.576-8.64-8.576-22.624 0-31.328l250.56-253.056a21.787 21.787 0 0 1 31.008 0c8.576 8.672 8.576 22.688 0 31.328L216 320l228.512 237.376z"/></symbol><symbol id="sprite-chevron-right" viewBox="0 0 640 640"><title/><path d="M424 320L195.488 82.56c-8.576-8.64-8.576-22.624 0-31.328a21.787 21.787 0 0 1 31.008 0l250.56 253.056c8.576 8.672 8.576 22.688 0 31.328l-250.56 253.056c-8.576 8.672-22.432 8.64-31.008 0-8.576-8.608-8.576-22.624 0-31.328L424 320z"/></symbol><symbol id="sprite-compass" viewBox="0 0 64 64"><title>compass</title><circle fill="none" stroke="#000" stroke-width="2" stroke-miterlimit="10" cx="32" cy="35" r="28.292"/><path fill="none" stroke="#000" stroke-width="2" stroke-linejoin="bevel" stroke-miterlimit="10" d="M37 40l8-19-19 8-7 18z"/><path fill="none" stroke="#000" stroke-width="2" stroke-miterlimit="10" d="M26 29l11 11m-.1-33a5 5 0 1 0-9.8 0M32 7v5m0 46v5m28-28h-5M9 35H4"/></symbol><symbol id="sprite-marker" viewBox="0 0 64 64"><title>marker</title><g fill="none" stroke="#000" stroke-width="2" stroke-miterlimit="10"><circle cx="32" cy="22" r="6"/><path d="M53 22.735C52.948 10.73 43.599 1 32 1s-21 9.73-21 21.735C11 38.271 31.965 63 31.965 63S53.069 38.271 53 22.735z"/></g></symbol><symbol id="sprite-phone" viewBox="0 0 64 64"><title>phone</title><g fill="none" stroke="#000" stroke-width="2" stroke-miterlimit="10"><path d="M16 1h32v62H16zm12 4h8M16 51h32M16 9h32"/><circle stroke-linejoin="bevel" cx="32" cy="57" r="2"/></g></symbol></svg>